# xmcd
#
# Track frame offsets:
#	150
#	15876
#	31471
#	51362
#	71913
#	93765
#	110529
#	125003
#	145351
#	164268
#	181467
#	200537
#	216353
#	231793
#	247500
#
# Disc length: 3529 seconds
#
# Revision: 1
# Processed by: cddbd v1.5.2PL0 Copyright (c) Steve Scherf et al.
# Submitted via: audiograbber 1.83.01
#
DISCID=d10dc70f
DTITLE=Michael Wendler - Best of
DYEAR=2007
DGENRE=Schlager - POP
TTITLE0=Sie liebt den DJ (Radio Fox)
TTITLE1=Salz in den Augen
TTITLE2=Schöner Mann
TTITLE3=180 Grad
TTITLE4=Mein Letztes Gebet
TTITLE5=Prinzessin
TTITLE6=Wenn alle Stricke Reissen
TTITLE7=Heuchler
TTITLE8=Es Ist Nicht Alles Gold Was Glänzt
TTITLE9=Verdammte Liebe
TTITLE10=Die Engel Fliehn
TTITLE11=Oh Lieber Gott
TTITLE12=Vollidiot
TTITLE13=Tagebuch
TTITLE14=Sie Liebt Den Dj - Videoclip/Radio-Fox
EXTD=
EXTT0=
EXTT1=
EXTT2=
EXTT3=
EXTT4=
EXTT5=
EXTT6=
EXTT7=
EXTT8=
EXTT9=
EXTT10=
EXTT11=
EXTT12=
EXTT13=
EXTT14=
PLAYORDER=
